<svg width="32" height="32" viewBox="0 0 32 32" fill="none" xmlns="http://www.w3.org/2000/svg">
<path d="M16 2.66675C8.64 2.66675 2.66667 8.64008 2.66667 16.0001C2.66667 23.3601 8.64 29.3334 16 29.3334C23.36 29.3334 29.3333 23.3601 29.3333 16.0001C29.3333 8.64008 23.36 2.66675 16 2.66675ZM9.42667 24.3734C10 23.1734 13.4933 22.0001 16 22.0001C18.5067 22.0001 22.0133 23.1734 22.5733 24.3734C20.76 25.8134 18.48 26.6667 16 26.6667C13.52 26.6667 11.24 25.8134 9.42667 24.3734ZM24.48 22.4401C22.5733 20.1201 17.9467 19.3334 16 19.3334C14.0533 19.3334 9.42667 20.1201 7.52 22.4401C6.10354 20.5919 5.33508 18.3287 5.33333 16.0001C5.33333 10.1201 10.12 5.33341 16 5.33341C21.88 5.33341 26.6667 10.1201 26.6667 16.0001C26.6667 18.4267 25.84 20.6534 24.48 22.4401ZM16 8.00008C13.4133 8.00008 11.3333 10.0801 11.3333 12.6667C11.3333 15.2534 13.4133 17.3334 16 17.3334C18.5867 17.3334 20.6667 15.2534 20.6667 12.6667C20.6667 10.0801 18.5867 8.00008 16 8.00008ZM16 14.6667C14.8933 14.6667 14 13.7734 14 12.6667C14 11.5601 14.8933 10.6667 16 10.6667C17.1067 10.6667 18 11.5601 18 12.6667C18 13.7734 17.1067 14.6667 16 14.6667Z" fill="#606C81"/>
</svg>
