<svg viewBox="0 0 18.0064 18" xmlns="http://www.w3.org/2000/svg" xmlns:xlink="http://www.w3.org/1999/xlink"  fill="currentColor" customFrame="#000000">
	<path id="Icon material-flight-takeoff" d="M0.582 15.935L17.446 15.935L17.446 18L0.582 18L0.582 15.935ZM17.952 6.269C17.926 6.08536 17.8616 5.90927 17.763 5.75217C17.6644 5.59508 17.5338 5.4605 17.3798 5.35721C17.2257 5.25391 17.0517 5.18422 16.8689 5.15265C16.6861 5.12108 16.4988 5.12836 16.319 5.174L11.605 6.645L5.481 0L3.768 0.527L7.443 7.927L3.036 9.305L1.287 7.715L0 8.115L1.615 11.378L2.298 12.751L3.718 12.307L8.428 10.845L12.289 9.645L17.002 8.179C17.3656 8.03069 17.6627 7.75491 17.8375 7.40332C18.0124 7.05173 18.0531 6.64844 17.952 6.269Z" opacity="0.5" fill="rgb(62,119,57)" fill-rule="nonzero" />
</svg>
