<svg width="10" height="14" viewBox="-0.05 0 10.5 14.7" fill="none" xmlns="http://www.w3.org/2000/svg">
  <path d="M5.22292 0.00305537C3.88788 -0.0426949 2.58858 0.426872 1.60962 1.3089C0.630662 2.19092 0.05186 3.4135 0 4.70882C0 8.36931 5.22395 14.646 5.22395 14.646C5.22395 14.646 10.4458 8.37031 10.4458 4.70882C10.394 3.4135 9.81518 2.19092 8.83622 1.3089C7.85726 0.426872 6.55796 -0.0426949 5.22292 0.00305537ZM5.22292 6.72229C4.88641 6.72229 4.55746 6.62546 4.27766 6.44404C3.99786 6.26262 3.77979 6.00477 3.65101 5.70308C3.52224 5.4014 3.48854 5.06943 3.55419 4.74917C3.61984 4.4289 3.78189 4.13471 4.01983 3.90382C4.25778 3.67292 4.56095 3.51567 4.89099 3.45197C5.22103 3.38826 5.56313 3.42096 5.87403 3.54592C6.18492 3.67088 6.45065 3.8825 6.6376 4.15401C6.82455 4.42551 6.92434 4.74472 6.92434 5.07127C6.92434 5.50914 6.74508 5.92909 6.42601 6.23871C6.10693 6.54834 5.67416 6.72229 5.22292 6.72229Z" fill="currentColor"/>
</svg>
