<svg width="18" height="18" viewBox="0 0 18 18" fill="none" xmlns="http://www.w3.org/2000/svg">
<path opacity="0.5" d="M9 0C7.21997 0 5.47991 0.527841 3.99987 1.51677C2.51983 2.50571 1.36628 3.91131 0.685088 5.55585C0.00389951 7.20038 -0.17433 9.00998 0.172937 10.7558C0.520203 12.5016 1.37737 14.1053 2.63604 15.364C3.89472 16.6226 5.49836 17.4798 7.24419 17.8271C8.99002 18.1743 10.7996 17.9961 12.4442 17.3149C14.0887 16.6337 15.4943 15.4802 16.4832 14.0001C17.4722 12.5201 18 10.78 18 9C18 7.8181 17.7672 6.64778 17.3149 5.55585C16.8626 4.46392 16.1997 3.47177 15.364 2.63604C14.5282 1.80031 13.5361 1.13738 12.4442 0.685084C11.3522 0.232792 10.1819 0 9 0ZM11.072 12.705L7.872 10.379C7.81687 10.3383 7.77205 10.2853 7.74114 10.2242C7.71022 10.163 7.69408 10.0955 7.694 10.027V3.919C7.69453 3.80379 7.74053 3.69345 7.82199 3.61199C7.90346 3.53053 8.0138 3.48453 8.129 3.484H9.871C9.98621 3.48453 10.0965 3.53053 10.178 3.61199C10.2595 3.69345 10.3055 3.80379 10.306 3.919V8.919L12.606 10.596C12.6524 10.6298 12.6916 10.6724 12.7215 10.7213C12.7513 10.7703 12.7712 10.8247 12.7799 10.8814C12.7887 10.9381 12.7861 10.996 12.7724 11.0517C12.7587 11.1074 12.7341 11.1598 12.7 11.206L11.677 12.614C11.608 12.7051 11.5061 12.7656 11.393 12.7826C11.28 12.7996 11.1648 12.7718 11.072 12.705Z" 
fill="currentColor"/>
</svg>
