<svg width="18" height="18" viewBox="0 0 18 18" fill="none" xmlns="http://www.w3.org/2000/svg">
<path opacity="0.5" d="M9.00222 5.62424C8.33453 5.62443 7.68189 5.82254 7.12682 6.19351C6.57175 6.56448 6.13918 7.09165 5.88381 7.70837C5.62843 8.32509 5.56171 9.00366 5.6921 9.65828C5.82248 10.3129 6.1441 10.9142 6.6163 11.3861C7.0885 11.858 7.69007 12.1793 8.34494 12.3095C8.99982 12.4396 9.67859 12.3727 10.2954 12.1172C10.9123 11.8618 11.4395 11.4292 11.8104 10.8742C12.1814 10.3192 12.3793 9.6667 12.3793 8.99924C12.3778 8.10444 12.0214 7.24677 11.3884 6.61415C10.7554 5.98153 9.89731 5.62556 9.00222 5.62424ZM17.6681 8.45424L14.338 6.79224L15.5164 3.26224C15.5524 3.15497 15.5578 3.03976 15.532 2.9296C15.5061 2.81943 15.45 2.71866 15.3699 2.63864C15.2899 2.55862 15.1891 2.50253 15.0789 2.47666C14.9687 2.45079 14.8534 2.45619 14.7461 2.49224L11.215 3.66924L9.5474 0.337235C9.49687 0.235922 9.41908 0.150697 9.32278 0.0911266C9.22648 0.0315564 9.11547 0 9.00222 0C8.88897 0 8.77797 0.0315564 8.68167 0.0911266C8.58536 0.150697 8.50758 0.235922 8.45704 0.337235L6.79449 3.66624L3.25932 2.48824C3.15201 2.45219 3.03677 2.44679 2.92657 2.47266C2.81636 2.49853 2.71556 2.55462 2.63552 2.63464C2.55547 2.71466 2.49935 2.81543 2.47348 2.9256C2.44761 3.03576 2.453 3.15097 2.48906 3.25824L3.66745 6.78824L0.337347 8.45424C0.236001 8.50476 0.150747 8.58251 0.0911569 8.67879C0.0315669 8.77506 0 8.88602 0 8.99924C0 9.11245 0.0315669 9.22341 0.0911569 9.31968C0.150747 9.41596 0.236001 9.49372 0.337347 9.54424L3.66745 11.2072L2.48906 14.7412C2.453 14.8485 2.44761 14.9637 2.47348 15.0739C2.49935 15.184 2.55547 15.2848 2.63552 15.3648C2.71556 15.4448 2.81636 15.5009 2.92657 15.5268C3.03677 15.5527 3.15201 15.5473 3.25932 15.5112L6.79049 14.3332L8.45404 17.6622C8.50458 17.7635 8.58236 17.8488 8.67866 17.9083C8.77497 17.9679 8.88597 17.9995 8.99922 17.9995C9.11247 17.9995 9.22347 17.9679 9.31978 17.9083C9.41608 17.8488 9.49387 17.7635 9.5444 17.6622L11.203 14.3332L14.7341 15.5112C14.8414 15.5473 14.9567 15.5527 15.0669 15.5268C15.1771 15.5009 15.2779 15.4448 15.3579 15.3648C15.438 15.2848 15.4941 15.184 15.52 15.0739C15.5458 14.9637 15.5404 14.8485 15.5044 14.7412L14.326 11.2112L17.6561 9.54823C17.7586 9.49868 17.8451 9.42142 17.9059 9.32522C17.9667 9.22901 17.9993 9.1177 18 9.00391C18.0007 8.89013 17.9695 8.77841 17.91 8.68143C17.8505 8.58446 17.7649 8.5061 17.6631 8.45524L17.6681 8.45424ZM12.1853 12.1812C11.5557 12.8106 10.7536 13.2391 9.88044 13.4128C9.00724 13.5864 8.10214 13.4973 7.2796 13.1567C6.45706 12.8161 5.75403 12.2393 5.2594 11.4993C4.76477 10.7593 4.50077 9.88925 4.50077 8.99924C4.50077 8.10922 4.76477 7.23919 5.2594 6.49918C5.75403 5.75916 6.45706 5.18238 7.2796 4.84178C8.10214 4.50119 9.00724 4.41207 9.88044 4.5857C10.7536 4.75933 11.5557 5.1879 12.1853 5.81724C12.6033 6.2351 12.9349 6.73118 13.1611 7.27715C13.3873 7.82312 13.5038 8.40828 13.5038 8.99924C13.5038 9.59019 13.3873 10.1754 13.1611 10.7213C12.9349 11.2673 12.6033 11.7634 12.1853 12.1812Z" 
fill="currentColor"/>
</svg>
