<svg width="20" height="16" viewBox="0 0 20 16" fill="none" xmlns="http://www.w3.org/2000/svg">
<path d="M3.00003 12.019H0.60003C0.520729 12.019 0.442215 12.0347 0.369026 12.0652C0.295836 12.0958 0.229425 12.1405 0.17363 12.1969C0.117836 12.2532 0.0737662 12.3201 0.0439686 12.3935C0.014171 12.467 -0.000763002 12.5457 3.00032e-05 12.625V15.025C3.00032e-05 15.1841 0.0632441 15.3367 0.175766 15.4493C0.288288 15.5618 0.4409 15.625 0.60003 15.625H3.00003C3.15916 15.625 3.31177 15.5618 3.42429 15.4493C3.53682 15.3367 3.60003 15.1841 3.60003 15.025V12.625C3.60082 12.5457 3.58589 12.467 3.55609 12.3935C3.52629 12.3201 3.48222 12.2532 3.42643 12.1969C3.37064 12.1405 3.30422 12.0958 3.23103 12.0652C3.15785 12.0347 3.07933 12.019 3.00003 12.019ZM3.00003 0H0.60003C0.4409 0 0.288288 0.0632141 0.175766 0.175736C0.0632441 0.288258 3.00032e-05 0.44087 3.00032e-05 0.6V3C3.00032e-05 3.15913 0.0632441 3.31174 0.175766 3.42426C0.288288 3.53679 0.4409 3.6 0.60003 3.6H3.00003C3.15916 3.6 3.31177 3.53679 3.42429 3.42426C3.53682 3.31174 3.60003 3.15913 3.60003 3V0.6C3.60003 0.44087 3.53682 0.288258 3.42429 0.175736C3.31177 0.0632141 3.15916 0 3.00003 0ZM3.00003 6.01H0.60003C0.4409 6.01 0.288288 6.07321 0.175766 6.18574C0.0632441 6.29826 3.00032e-05 6.45087 3.00032e-05 6.61V9.01C3.00032e-05 9.16913 0.0632441 9.32174 0.175766 9.43426C0.288288 9.54679 0.4409 9.61 0.60003 9.61H3.00003C3.15916 9.61 3.31177 9.54679 3.42429 9.43426C3.53682 9.32174 3.60003 9.16913 3.60003 9.01V6.61C3.60003 6.45087 3.53682 6.29826 3.42429 6.18574C3.31177 6.07321 3.15916 6.01 3.00003 6.01ZM18.63 12.625H6.61103C6.4519 12.625 6.29929 12.6882 6.18677 12.8007C6.07424 12.9133 6.01103 13.0659 6.01103 13.225V14.425C6.01103 14.5038 6.02655 14.5818 6.0567 14.6546C6.08685 14.7274 6.13105 14.7935 6.18677 14.8493C6.24248 14.905 6.30862 14.9492 6.38142 14.9793C6.45422 15.0095 6.53224 15.025 6.61103 15.025H18.63C18.7088 15.025 18.7868 15.0095 18.8596 14.9793C18.9324 14.9492 18.9986 14.905 19.0543 14.8493C19.11 14.7935 19.1542 14.7274 19.1844 14.6546C19.2145 14.5818 19.23 14.5038 19.23 14.425V13.225C19.23 13.1462 19.2145 13.0682 19.1844 12.9954C19.1542 12.9226 19.11 12.8565 19.0543 12.8007C18.9986 12.745 18.9324 12.7008 18.8596 12.6707C18.7868 12.6405 18.7088 12.625 18.63 12.625ZM18.63 0.606H6.61103C6.4519 0.606 6.29929 0.669214 6.18677 0.781736C6.07424 0.894258 6.01103 1.04687 6.01103 1.206V2.406C6.01103 2.56513 6.07424 2.71774 6.18677 2.83026C6.29929 2.94279 6.4519 3.006 6.61103 3.006H18.63C18.7088 3.006 18.7868 2.99048 18.8596 2.96033C18.9324 2.93017 18.9986 2.88598 19.0543 2.83026C19.11 2.77455 19.1542 2.70841 19.1844 2.63561C19.2145 2.56281 19.23 2.48479 19.23 2.406V1.206C19.2307 1.12679 19.2157 1.04823 19.1858 0.974854C19.1559 0.901481 19.1119 0.834746 19.0561 0.7785C19.0003 0.722254 18.9339 0.677611 18.8608 0.647146C18.7877 0.616681 18.7092 0.600997 18.63 0.601V0.606ZM18.63 6.616H6.61103C6.4519 6.616 6.29929 6.67921 6.18677 6.79174C6.07424 6.90426 6.01103 7.05687 6.01103 7.216V8.416C6.01103 8.57513 6.07424 8.72774 6.18677 8.84026C6.29929 8.95279 6.4519 9.016 6.61103 9.016H18.63C18.7088 9.016 18.7868 9.00048 18.8596 8.97033C18.9324 8.94017 18.9986 8.89598 19.0543 8.84026C19.11 8.78455 19.1542 8.7184 19.1844 8.64561C19.2145 8.57281 19.23 8.49479 19.23 8.416V7.216C19.2307 7.13679 19.2157 7.05823 19.1858 6.98485C19.1559 6.91148 19.1119 6.84475 19.0561 6.7885C19.0003 6.73225 18.9339 6.68761 18.8608 6.65715C18.7877 6.62668 18.7092 6.611 18.63 6.611V6.616Z" fill="#F68521"/>
</svg>
