<svg width="19" height="18" viewBox="0 0 19 18" fill="none" xmlns="http://www.w3.org/2000/svg">
<path opacity="0.5" d="M4.01324 0.000839914C3.03691 -0.0193337 2.08801 0.32452 1.35126 0.965464C0.614502 1.60641 0.142612 2.49858 0.0274485 3.4683C-0.0877151 4.43802 0.162089 5.41589 0.728232 6.21157C1.29438 7.00725 2.13634 7.56378 3.09024 7.77284L2.42824 16.8778C2.43016 17.0357 2.4648 17.1915 2.52999 17.3354C2.59517 17.4792 2.68948 17.6079 2.80695 17.7135C2.92442 17.819 3.0625 17.899 3.21247 17.9485C3.36244 17.998 3.52103 18.0158 3.67824 18.0008H4.34524C4.50268 18.0162 4.6616 17.9987 4.81193 17.9495C4.96226 17.9002 5.10071 17.8203 5.21851 17.7147C5.33632 17.6091 5.4309 17.4802 5.49627 17.3361C5.56163 17.1921 5.59636 17.036 5.59824 16.8778L4.93624 7.77284C5.88679 7.56066 6.72478 7.00326 7.28787 6.20859C7.85096 5.41392 8.09909 4.43854 7.98419 3.4714C7.86929 2.50425 7.39953 1.61417 6.66592 0.973554C5.93231 0.33294 4.98705 -0.012609 4.01324 0.00383993V0.000839914ZM17.4572 0.000839914L16.3462 5.62584H15.5132L14.9572 0.000839914H14.4012L13.8452 5.62584H13.0122L11.9022 0.000839914H11.3462V7.31384C11.361 7.47656 11.4393 7.6269 11.5641 7.73229C11.689 7.83767 11.8504 7.88961 12.0132 7.87684H13.7492L13.0942 16.8768C13.0961 17.0349 13.1308 17.1909 13.1961 17.3349C13.2614 17.4789 13.3559 17.6077 13.4736 17.7133C13.5913 17.8188 13.7296 17.8988 13.8799 17.9482C14.0301 17.9975 14.1889 18.0151 14.3462 17.9998H15.0132C15.1706 18.0151 15.3294 17.9975 15.4796 17.9482C15.6298 17.8988 15.7682 17.8188 15.8859 17.7133C16.0035 17.6077 16.098 17.4789 16.1633 17.3349C16.2286 17.1909 16.2633 17.0349 16.2652 16.8768L15.6102 7.87684H17.3462C17.509 7.88962 17.6702 7.83782 17.795 7.73265C17.9198 7.62747 17.9982 7.47738 18.0132 7.31484V0.000839914H17.4572Z" 
fill="currentColor"/>
</svg>
