<svg viewBox="0 0 14 14" xmlns="http://www.w3.org/2000/svg" xmlns:xlink="http://www.w3.org/1999/xlink" fill="currentColor" customFrame="#000000">
	<path id="Vector" d="M7 0C3.13438 0 0 3.13438 0 7C0 10.8656 3.13438 14 7 14C10.8656 14 14 10.8656 14 7C14 3.13438 10.8656 0 7 0ZM10 7.375C10 7.44375 9.94375 7.5 9.875 7.5L4.125 7.5C4.05625 7.5 4 7.44375 4 7.375L4 6.625C4 6.55625 4.05625 6.5 4.125 6.5L9.875 6.5C9.94375 6.5 10 6.55625 10 6.625L10 7.375Z" opacity="0.5" fill="currentColor" fill-rule="nonzero" />
</svg>
