<svg viewBox="0 0 10.124 14.6281" xmlns="http://www.w3.org/2000/svg" xmlns:xlink="http://www.w3.org/1999/xlink" fill="currentColor" customFrame="000000">
	<path id="Icon ionic-ios-pin" d="M5.062 0.00305162C3.7681 -0.0426426 2.50882 0.426349 1.56003 1.30729C0.611231 2.18824 0.0502621 3.40932 0 4.70305C8.88178e-16 8.35905 5.063 14.6281 5.063 14.6281C5.063 14.6281 10.124 8.36005 10.124 4.70305C10.0737 3.40932 9.51277 2.18824 8.56397 1.30729C7.61518 0.426349 6.3559 -0.0426426 5.062 0.00305162ZM5.062 6.71405C4.73586 6.71405 4.41704 6.61734 4.14586 6.43614C3.87469 6.25495 3.66333 5.99741 3.53852 5.6961C3.41371 5.39478 3.38106 5.06322 3.44469 4.74335C3.50831 4.42347 3.66536 4.12965 3.89598 3.89903C4.1266 3.66842 4.42042 3.51136 4.7403 3.44774C5.06017 3.38411 5.39173 3.41677 5.69305 3.54157C5.99436 3.66638 6.2519 3.87774 6.43309 4.14892C6.61429 4.42009 6.711 4.73891 6.711 5.06505C6.711 5.50239 6.53727 5.92182 6.22802 6.23107C5.91877 6.54032 5.49934 6.71405 5.062 6.71405Z" opacity="0.5" fill="rgb(62,119,57)" fill-rule="nonzero" />
</svg>
