<svg viewBox="0 0 16 16" xmlns="http://www.w3.org/2000/svg" xmlns:xlink="http://www.w3.org/1999/xlink"  fill="currentColor">
	<rect id="ant-design:plus-circle-filled" width="16.000000" height="16.000000" x="0.000000" y="0.000000" fill="rgb(255,255,255)" fill-opacity="0" />
	<path id="Vector" d="M8 1C4.13438 1 1 4.13438 1 8C1 11.8656 4.13438 15 8 15C11.8656 15 15 11.8656 15 8C15 4.13438 11.8656 1 8 1ZM11 8.375C11 8.44375 10.9438 8.5 10.875 8.5L8.5 8.5L8.5 10.875C8.5 10.9438 8.44375 11 8.375 11L7.625 11C7.55625 11 7.5 10.9438 7.5 10.875L7.5 8.5L5.125 8.5C5.05625 8.5 5 8.44375 5 8.375L5 7.625C5 7.55625 5.05625 7.5 5.125 7.5L7.5 7.5L7.5 5.125C7.5 5.05625 7.55625 5 7.625 5L8.375 5C8.44375 5 8.5 5.05625 8.5 5.125L8.5 7.5L10.875 7.5C10.9438 7.5 11 7.55625 11 7.625L11 8.375Z" opacity="0.5" fill="currentColor" fill-rule="nonzero" />
</svg>
