<svg viewBox="0 0 18 18" xmlns="http://www.w3.org/2000/svg" xmlns:xlink="http://www.w3.org/1999/xlink"  fill="currentColor">
	<rect id="ic:baseline-lock"  x="0.000000" y="0.000000" fill="rgb(255,255,255)" fill-opacity="0" />
	<path id="Vector" d="M13.5 6L12.75 6L12.75 4.5C12.75 2.43 11.07 0.75 9 0.75C6.93 0.75 5.25 2.43 5.25 4.5L5.25 6L4.5 6C3.675 6 3 6.675 3 7.5L3 15C3 15.825 3.675 16.5 4.5 16.5L13.5 16.5C14.325 16.5 15 15.825 15 15L15 7.5C15 6.675 14.325 6 13.5 6ZM9 12.75C8.175 12.75 7.5 12.075 7.5 11.25C7.5 10.425 8.175 9.75 9 9.75C9.825 9.75 10.5 10.425 10.5 11.25C10.5 12.075 9.825 12.75 9 12.75ZM11.325 6L6.675 6L6.675 4.5C6.675 3.2175 7.7175 2.175 9 2.175C10.2825 2.175 11.325 3.2175 11.325 4.5L11.325 6Z" opacity="0.5" fill="rgb(37,82,150)" fill-rule="nonzero" />
</svg>
