<svg viewBox="0 0 18 18" xmlns="http://www.w3.org/2000/svg" xmlns:xlink="http://www.w3.org/1999/xlink" width="18.000000" height="18.000000" fill="none">
	<rect id="eva:star-fill" width="18.000000" height="18.000000" x="0.000000" y="0.000000" fill="rgb(255,255,255)" fill-opacity="0" />
	<path id="Vector" d="M13.17 15.7499C13.0501 15.7504 12.9318 15.7221 12.825 15.6674L9 13.6649L5.175 15.6674C5.0508 15.7327 4.91076 15.7619 4.77081 15.7516C4.63086 15.7412 4.49661 15.6919 4.38333 15.6091C4.27004 15.5262 4.18226 15.4133 4.12997 15.2831C4.07767 15.1529 4.06296 15.0106 4.0875 14.8724L4.8375 10.6499L1.74751 7.64991C1.6511 7.5537 1.58271 7.43306 1.54968 7.30093C1.51664 7.1688 1.52021 7.03016 1.56001 6.89991C1.60347 6.76661 1.68344 6.64817 1.79082 6.55803C1.8982 6.46788 2.0287 6.40964 2.16751 6.38991L6.4425 5.76741L8.325 1.91991C8.38642 1.79311 8.48231 1.68617 8.60169 1.61134C8.72107 1.53651 8.85911 1.49683 9 1.49683C9.1409 1.49683 9.27894 1.53651 9.39832 1.61134C9.5177 1.68617 9.61359 1.79311 9.675 1.91991L11.58 5.75991L15.855 6.38241C15.9938 6.40214 16.1243 6.46038 16.2317 6.55053C16.3391 6.64067 16.419 6.75911 16.4625 6.89241C16.5023 7.02266 16.5059 7.1613 16.4728 7.29343C16.4398 7.42556 16.3714 7.5462 16.275 7.64241L13.185 10.6424L13.935 14.8649C13.9618 15.0055 13.9478 15.1508 13.8946 15.2837C13.8414 15.4166 13.7514 15.5316 13.635 15.6149C13.4992 15.7101 13.3357 15.7576 13.17 15.7499Z" fill="rgb(245,194,19)" fill-rule="nonzero" />
</svg>
